<svg id="Capa_1" enable-background="new 0 0 512 512" height="512" viewBox="0 0 512 512" width="512" xmlns="http://www.w3.org/2000/svg"><g><path fill="#ff6c67" d="m495.844 145.17c-63.805 4.856-85.615-52.168-149.35-67.072l2.66-6.519c3.131-7.67-.549-16.425-8.218-19.556-7.673-3.132-16.425.55-19.555 8.219-7.873 19.29-57.019 139.702-65.381 160.189-7.317-17.927-53.137-130.19-65.381-160.188-3.131-7.67-11.883-11.351-19.555-8.219-7.669 3.131-11.349 11.886-8.218 19.556l2.66 6.519c-63.823 14.924-85.401 71.944-149.35 67.072-11.091-.848-19.242 10.3-15.027 20.625l52.819 129.412c2.147 5.26 7.082 8.856 12.746 9.288 79.321 6.055 104.945-58.297 163.159-68.743l9.947 24.371-73.588 180.296c-3.131 7.67.549 16.425 8.218 19.556 7.697 3.142 16.436-.577 19.555-8.219l62.015-151.942 62.015 151.941c3.564 8.733 14.156 11.952 21.904 7.021 5.818-3.703 8.764-11.267 5.87-18.357l-73.588-180.296 9.947-24.371c58.481 10.494 83.61 74.809 163.159 68.743 5.665-.432 10.599-4.028 12.746-9.288l52.819-129.412c4.208-10.309-3.918-21.473-15.028-20.626zm-417.792 129.709-40.866-100.127c62.619-6.901 87.415-59.003 139.848-68.412l41.292 101.169c-60.302 14.102-83.789 66.653-140.274 67.37zm355.897 0c-56.677-.723-79.682-53.2-140.274-67.369l41.292-101.169c52.583 9.436 77.119 61.503 139.848 68.412z"/></g></svg>
